<?xml version="1.0" encoding="UTF-8" standalone="no"?><!DOCTYPE svg PUBLIC "-//W3C//DTD SVG 1.1//EN" "http://www.w3.org/Graphics/SVG/1.1/DTD/svg11.dtd"><svg width="100%" height="100%" viewBox="0 0 31 31" version="1.1" xmlns="http://www.w3.org/2000/svg" xmlns:xlink="http://www.w3.org/1999/xlink" xml:space="preserve" xmlns:serif="http://www.serif.com/" style="fill-rule:evenodd;clip-rule:evenodd;stroke-linejoin:round;stroke-miterlimit:2;"><g><path d="M14.55,24.716c0.179,0.275 0.486,0.442 0.815,0.442c0.33,-0 0.637,-0.167 0.816,-0.442c1.87,-2.873 6.461,-9.925 8.48,-13.026c0.195,-0.299 0.21,-0.681 0.04,-0.995c-0.17,-0.314 -0.499,-0.51 -0.856,-0.51c-3.892,0 -13.068,0 -16.959,0c-0.357,0 -0.686,0.196 -0.856,0.51c-0.17,0.314 -0.155,0.696 0.04,0.995c2.019,3.101 6.609,10.153 8.48,13.026Z" style="fill:#b7b7b7;"/><path d="M15.365,0c8.481,0 15.366,6.885 15.366,15.365c-0,8.481 -6.885,15.366 -15.366,15.366c-8.48,-0 -15.365,-6.885 -15.365,-15.366c-0,-8.48 6.885,-15.365 15.365,-15.365Zm0,1.776c-7.5,-0 -13.589,6.089 -13.589,13.589c-0,7.501 6.089,13.59 13.589,13.59c7.501,0 13.59,-6.089 13.59,-13.59c0,-7.5 -6.089,-13.589 -13.59,-13.589Z" style="fill:#b7b7b7;"/></g></svg>