<?xml version="1.0" encoding="UTF-8" standalone="no"?><!DOCTYPE svg PUBLIC "-//W3C//DTD SVG 1.1//EN" "http://www.w3.org/Graphics/SVG/1.1/DTD/svg11.dtd"><svg width="100%" height="100%" viewBox="0 0 29 29" version="1.1" xmlns="http://www.w3.org/2000/svg" xmlns:xlink="http://www.w3.org/1999/xlink" xml:space="preserve" xmlns:serif="http://www.serif.com/" style="fill-rule:evenodd;clip-rule:evenodd;stroke-linejoin:round;stroke-miterlimit:2;"><path d="M10.003,-0l0,2.858l8.575,0l-0,-2.858l2.858,-0l-0,2.858l5.716,0c0.789,0 1.429,0.64 1.429,1.429l0,22.865c0,0.789 -0.64,1.429 -1.429,1.429l-25.723,0c-0.789,0 -1.429,-0.64 -1.429,-1.429l-0,-22.865c-0,-0.789 0.64,-1.429 1.429,-1.429l5.716,0l0,-2.858l2.858,-0Zm15.72,14.291l-22.865,-0l0,11.432l22.865,0l0,-11.432Zm-18.578,-8.575l-4.287,0l0,5.716l22.865,0l0,-5.716l-4.287,0l-0,2.858l-2.858,0l-0,-2.858l-8.575,0l0,2.858l-2.858,0l0,-2.858Z" style="fill:#b7b7b7;fill-rule:nonzero;"/></svg>