<?xml version="1.0" encoding="UTF-8" standalone="no"?><!DOCTYPE svg PUBLIC "-//W3C//DTD SVG 1.1//EN" "http://www.w3.org/Graphics/SVG/1.1/DTD/svg11.dtd"><svg width="100%" height="100%" viewBox="0 0 22 24" version="1.1" xmlns="http://www.w3.org/2000/svg" xmlns:xlink="http://www.w3.org/1999/xlink" xml:space="preserve" xmlns:serif="http://www.serif.com/" style="fill-rule:evenodd;clip-rule:evenodd;stroke-linejoin:round;stroke-miterlimit:2;"><path d="M5.012,14.569l0.557,-5.298l-5.569,0l0,-2.649l5.848,0l0.696,-6.622l2.663,-0l-0.696,6.622l5.283,0l0.696,-6.622l2.664,-0l-0.696,6.622l4.734,0l-0,2.649l-5.012,0l-0.557,5.298l5.569,0l-0,2.649l-5.848,0l-0.696,6.623l-2.663,-0l0.696,-6.623l-5.284,0l-0.696,6.623l-2.663,-0l0.696,-6.623l-4.734,0l0,-2.649l5.012,0Zm2.664,0l5.283,0l0.557,-5.298l-5.283,0l-0.557,5.298Z" style="fill:#b7b7b7;fill-rule:nonzero;"/></svg>