<?xml version="1.0" encoding="UTF-8" standalone="no"?><!DOCTYPE svg PUBLIC "-//W3C//DTD SVG 1.1//EN" "http://www.w3.org/Graphics/SVG/1.1/DTD/svg11.dtd"><svg width="100%" height="100%" viewBox="0 0 36 29" version="1.1" xmlns="http://www.w3.org/2000/svg" xmlns:xlink="http://www.w3.org/1999/xlink" xml:space="preserve" xmlns:serif="http://www.serif.com/" style="fill-rule:evenodd;clip-rule:evenodd;stroke-linejoin:round;stroke-miterlimit:2;"><g><path d="M0.045,28.292l7.282,-18.362l3.694,-0l7.204,18.362l-4.317,-0l-5.514,-15.241l1.482,-0l-5.592,15.241l-4.239,-0Zm4.135,-3.329l0,-3.329l10.014,-0l-0,3.329l-10.014,-0Z" style="fill:#b7b7b7;fill-rule:nonzero;stroke:#b7b7b7;stroke-width:0.09px;"/><path d="M24.262,18.362l-0,-3.173l4.317,0c0.798,0 1.422,-0.234 1.873,-0.702c0.45,-0.468 0.676,-1.041 0.676,-1.717c-0,-0.468 -0.104,-0.884 -0.312,-1.248c-0.208,-0.364 -0.503,-0.65 -0.884,-0.858c-0.365,-0.209 -0.815,-0.313 -1.353,-0.313l-4.317,0l-0,-3.095l3.979,0c0.676,0 1.222,-0.164 1.638,-0.494c0.417,-0.347 0.625,-0.867 0.625,-1.56c-0,-0.676 -0.208,-1.179 -0.625,-1.509c-0.416,-0.347 -0.962,-0.52 -1.638,-0.52l-3.979,0l-0,-3.173l4.759,0c1.179,0 2.176,0.217 2.991,0.65c0.832,0.434 1.465,1.015 1.899,1.743c0.433,0.728 0.65,1.534 0.65,2.419c0,1.127 -0.364,2.08 -1.092,2.861c-0.729,0.78 -1.804,1.317 -3.225,1.612l0.104,-1.378c1.543,0.294 2.731,0.893 3.563,1.794c0.849,0.902 1.274,2.012 1.274,3.329c0,1.006 -0.251,1.916 -0.754,2.731c-0.485,0.798 -1.196,1.431 -2.133,1.899c-0.919,0.468 -2.028,0.702 -3.329,0.702l-4.707,0Zm-3.121,0l-0,-18.362l4.031,0l-0,18.362l-4.031,0Z" style="fill:#b7b7b7;fill-rule:nonzero;"/></g></svg>