<?xml version="1.0" encoding="UTF-8" standalone="no"?><!DOCTYPE svg PUBLIC "-//W3C//DTD SVG 1.1//EN" "http://www.w3.org/Graphics/SVG/1.1/DTD/svg11.dtd"><svg width="100%" height="100%" viewBox="0 0 27 24" version="1.1" xmlns="http://www.w3.org/2000/svg" xmlns:xlink="http://www.w3.org/1999/xlink" xml:space="preserve" xmlns:serif="http://www.serif.com/" style="fill-rule:evenodd;clip-rule:evenodd;stroke-linejoin:round;stroke-miterlimit:2;"><path d="M-0,-0.469l26.909,-0c0.259,-0 0.469,0.21 0.469,0.469l0,2.99c0,0.259 -0.21,0.469 -0.469,0.469l-26.909,0c-0.259,0 -0.469,-0.21 -0.469,-0.469l-0,-2.99c-0,-0.259 0.21,-0.469 0.469,-0.469Zm0,10.465l26.909,-0c0.259,-0 0.469,0.21 0.469,0.469l0,2.99c0,0.259 -0.21,0.469 -0.469,0.469l-26.909,-0c-0.259,-0 -0.469,-0.21 -0.469,-0.469l-0,-2.99c-0,-0.259 0.21,-0.469 0.469,-0.469Zm-0,10.464l13.508,0c0.26,0 0.47,0.21 0.47,0.469l-0,2.99c-0,0.259 -0.21,0.469 -0.47,0.469l-13.508,0c-0.259,0 -0.469,-0.21 -0.469,-0.469l-0,-2.99c-0,-0.259 0.21,-0.469 0.469,-0.469Z" style="fill:#b7b7b7;fill-rule:nonzero;"/></svg>